HIERARCHY
ROOT Hips
{
 OFFSET 0.000000 0.000000 0.000000
 CHANNELS 6 Xposition Yposition Zposition Yrotation Xrotation Zrotation
 JOINT Chest
 {
  OFFSET 0.000000 9.585900 0.002600
  CHANNELS 3 Yrotation Xrotation Zrotation
  JOINT Chest2
  {
   OFFSET 0.000000 9.601200 -0.005300
   CHANNELS 3 Yrotation Xrotation Zrotation
   JOINT Chest3
   {
    OFFSET 0.000000 9.561800 0.000000
    CHANNELS 3 Yrotation Xrotation Zrotation
    JOINT Chest4
    {
     OFFSET 0.000000 9.552100 0.000000
     CHANNELS 3 Yrotation Xrotation Zrotation
     JOINT Neck
     {
      OFFSET 0.000000 14.453000 0.000000
      CHANNELS 3 Yrotation Xrotation Zrotation
      JOINT Head
      {
       OFFSET 0.000000 8.936500 -0.011300
       CHANNELS 3 Yrotation Xrotation Zrotation
       End Site
       {
        OFFSET 0.000000 17.073600 -0.006000
       }
      }
     }
     JOINT RightCollar
     {
      OFFSET -2.921100 9.558500 0.000000
      CHANNELS 3 Yrotation Xrotation Zrotation
      JOINT RightShoulder
      {
       OFFSET -13.519700 0.000000 0.000000
       CHANNELS 3 Yrotation Xrotation Zrotation
       JOINT RightElbow
       {
        OFFSET 0.000000 -29.696600 0.000000
        CHANNELS 3 Yrotation Xrotation Zrotation
        JOINT RightWrist
        {
         OFFSET 0.000000 -24.004700 0.000000
         CHANNELS 3 Yrotation Xrotation Zrotation
         End Site
         {
          OFFSET 0.000000 -17.728500 0.000000
         }
        }
       }
      }
     }
     JOINT LeftCollar
     {
      OFFSET 2.921100 9.558500 0.000000
      CHANNELS 3 Yrotation Xrotation Zrotation
      JOINT LeftShoulder
      {
       OFFSET 13.519700 0.000000 0.000000
       CHANNELS 3 Yrotation Xrotation Zrotation
       JOINT LeftElbow
       {
        OFFSET 0.000000 -29.696600 0.000000
        CHANNELS 3 Yrotation Xrotation Zrotation
        JOINT LeftWrist
        {
         OFFSET 0.000000 -24.004700 0.000000
         CHANNELS 3 Yrotation Xrotation Zrotation
         End Site
         {
          OFFSET 0.000000 -17.728500 0.000000
         }
        }
       }
      }
     }
    }
   }
  }
 }
 JOINT RightHip
 {
  OFFSET -7.771700 -0.012900 -0.001300
  CHANNELS 3 Yrotation Xrotation Zrotation
  JOINT RightKnee
  {
   OFFSET 0.000000 -40.869800 0.001200
   CHANNELS 3 Yrotation Xrotation Zrotation
   JOINT RightAnkle
   {
    OFFSET 0.000000 -39.717900 0.002100
    CHANNELS 3 Yrotation Xrotation Zrotation
    JOINT RightToe
    {
     OFFSET 0.000000 -4.965400 11.033500
     CHANNELS 3 Yrotation Xrotation Zrotation
     End Site
     {
      OFFSET 0.000000 -1.423100 5.872300
     }
    }
   }
  }
 }
 JOINT LeftHip
 {
  OFFSET 7.771700 -0.012900 -0.001300
  CHANNELS 3 Yrotation Xrotation Zrotation
  JOINT LeftKnee
  {
   OFFSET 0.000000 -40.869800 0.001200
   CHANNELS 3 Yrotation Xrotation Zrotation
   JOINT LeftAnkle
   {
    OFFSET 0.000000 -39.717900 0.002100
    CHANNELS 3 Yrotation Xrotation Zrotation
    JOINT LeftToe
    {
     OFFSET 0.000000 -4.965400 11.033500
     CHANNELS 3 Yrotation Xrotation Zrotation
     End Site
     {
      OFFSET 0.000000 -1.423100 5.872300
     }
    }
   }
  }
 }
}
MOTION
Frames: 9
Frame Time: 0.008333
-15.423922 55.061834 26.132188 -176.189939 -33.148173 -11.197974 -0.484194 13.125187 5.722729 -0.335978 7.584261 2.036906 -0.378343 9.481614 2.544810 -0.320893 7.601292 2.010123 5.566304 20.109977 -2.831158 6.697676 -4.122346 -4.357899 1.225092 3.484310 -3.624204 -17.283322 -8.449366 7.534381 8.553232 -64.355990 5.660263 9.018059 -9.861323 -28.149138 -8.231106 3.820776 -2.881858 3.427751 -0.751986 -2.420531 -69.822515 -72.042293 74.715436 10.835773 -15.023436 6.501042 -17.958036 -32.817986 3.344946 11.743130 87.005541 8.089541 1.010139 -17.094912 1.754620 -0.090726 0.511921 -0.030817 -14.989753 -45.203069 12.477781 167.135899 79.328293 162.326142 -0.949267 -15.349686 2.131863 -1.086859 -3.121362 -0.489440
-15.425743 55.070480 26.137964 -176.220151 -33.177716 -11.185762 -0.459763 13.136961 5.713513 -0.329354 7.600488 2.034539 -0.367125 9.490332 2.538418 -0.304375 7.598801 2.008607 5.571348 20.148866 -2.833329 6.723162 -4.043816 -4.381631 1.273767 3.468164 -3.643109 -17.308763 -8.796822 7.419720 6.969121 -63.738439 7.091487 8.843251 -9.884242 -28.245121 -8.218164 3.764945 -2.881556 3.415484 -0.797185 -2.423746 -69.961544 -71.992018 74.851858 10.866218 -15.133209 6.624302 -17.927755 -32.803517 3.355143 11.370835 87.011241 7.701919 1.023978 -17.091671 1.765377 -0.089375 0.511613 -0.030947 -14.965654 -45.184927 12.460593 167.068976 79.324774 162.272536 -0.942287 -15.340897 2.112261 -1.084178 -3.122508 -0.487832
-15.427187 55.079392 26.142360 -176.237539 -33.214744 -11.181176 -0.432880 13.150311 5.716352 -0.311526 7.600449 2.023785 -0.372385 9.513881 2.538275 -0.297172 7.594641 2.012932 5.563594 20.162017 -2.823707 6.761760 -3.929117 -4.417840 1.321644 3.458410 -3.647278 -17.316838 -9.167060 7.280295 5.459120 -63.072717 8.423359 8.667117 -9.850998 -28.394188 -8.197061 3.712420 -2.889226 3.393520 -0.844660 -2.429369 -70.128606 -71.931323 75.023066 10.898090 -15.242762 6.748004 -17.906965 -32.776453 3.350872 11.315600 87.013257 7.631108 1.076729 -17.095292 1.757738 -0.076284 0.510829 -0.028928 -14.942770 -45.158110 12.446947 167.018411 79.319540 162.225795 -0.929459 -15.332748 2.109926 -1.095852 -3.123395 -0.490894
-15.428955 55.087994 26.146217 -176.243623 -33.251391 -11.179899 -0.411771 13.159905 5.720960 -0.303618 7.601597 2.021441 -0.367545 9.527981 2.531038 -0.311360 7.601253 2.023297 5.587668 20.220864 -2.850093 6.774999 -3.850433 -4.417953 1.381536 3.446093 -3.653654 -17.311730 -9.560602 7.126733 4.133490 -62.360743 9.558733 8.501714 -9.743582 -28.611835 -8.161302 3.653001 -2.908615 3.364948 -0.888627 -2.437176 -70.307102 -71.867506 75.215315 10.933819 -15.347472 6.851558 -17.895721 -32.747901 3.338165 11.336703 87.016015 7.636292 1.140525 -17.100354 1.747536 -0.074298 0.511588 -0.027794 -14.925460 -45.129286 12.431875 166.932753 79.314959 162.146042 -0.939951 -15.328523 2.104982 -1.093187 -3.120387 -0.489707
-15.430000 55.096139 26.150298 -176.243434 -33.282330 -11.186334 -0.394309 13.167267 5.730953 -0.291217 7.593175 2.019663 -0.365561 9.535580 2.529768 -0.303456 7.601948 2.021613 5.633512 20.352342 -2.873279 6.741211 -3.808385 -4.386010 1.411159 3.445452 -3.640933 -17.292023 -9.983450 6.960515 3.025152 -61.599222 10.480368 8.345254 -9.550966 -28.905677 -8.153577 3.604356 -2.922021 3.332139 -0.929187 -2.446503 -70.482238 -71.804953 75.414653 10.972369 -15.445346 6.920973 -17.898272 -32.721085 3.340881 11.095044 87.019443 7.386260 1.141654 -17.103064 1.753307 -0.044832 0.515197 -0.030960 -14.913562 -45.107130 12.415219 166.842762 79.308926 162.073529 -0.947300 -15.322612 2.093558 -1.087254 -3.118299 -0.488529
-15.430867 55.103982 26.154539 -176.249426 -33.310130 -11.191180 -0.366183 13.158520 5.743865 -0.296699 7.610158 2.018217 -0.305650 9.487872 2.517401 -0.288345 7.602061 2.016569 5.582500 20.437593 -2.829831 6.761155 -3.656179 -4.377351 1.388947 3.478785 -3.589144 -17.259557 -10.445050 6.776853 2.086685 -60.784994 11.243789 8.196371 -9.261867 -29.271638 -8.199650 3.589727 -2.916248 3.295333 -0.968077 -2.455403 -70.659984 -71.743662 75.622308 11.014870 -15.532215 6.962644 -17.903501 -32.697756 3.351397 10.628988 87.024464 6.911996 1.129530 -17.104335 1.763300 -0.059501 0.518426 -0.034089 -14.901972 -45.088548 12.403031 166.752962 79.301039 161.995766 -0.939082 -15.315745 2.088186 -1.096802 -3.119305 -0.493606
-15.433135 55.113644 26.155687 -176.244000 -33.356609 -11.196156 -0.342178 13.159031 5.749155 -0.306050 7.637464 2.018490 -0.284726 9.472683 2.509553 -0.280902 7.603608 2.014077 5.592761 20.564267 -2.808979 6.747203 -3.549798 -4.347835 1.416213 3.484574 -3.544454 -17.213899 -10.959178 6.566662 1.230009 -59.912696 11.931481 8.043115 -8.880135 -29.681306 -8.199698 3.537320 -2.930508 3.255453 -1.008829 -2.459566 -70.846106 -71.685157 75.837197 11.059976 -15.601909 6.987485 -17.910590 -32.653528 3.342002 10.242987 87.027697 6.510736 1.150804 -17.107563 1.765529 -0.081605 0.516989 -0.035070 -14.881263 -45.049808 12.372670 166.670622 79.294584 161.923887 -0.925822 -15.305777 2.084916 -1.110178 -3.125848 -0.498764
-15.435537 55.123717 26.156696 -176.238722 -33.404899 -11.201585 -0.329267 13.188033 5.751765 -0.289065 7.623297 2.015935 -0.293968 9.488343 2.511209 -0.265412 7.581725 2.003919 5.600684 20.706040 -2.778034 6.731018 -3.434713 -4.311532 1.420381 3.511253 -3.507158 -17.114455 -11.538323 6.342963 0.327650 -58.967249 12.647144 7.873244 -8.418831 -30.088875 -8.190079 3.492728 -2.954301 3.213367 -1.056632 -2.455224 -71.028701 -71.635420 76.047316 11.104435 -15.655282 6.992601 -17.913389 -32.605547 3.337767 9.750808 87.030172 6.008964 1.132851 -17.112079 1.775525 -0.084181 0.518224 -0.035645 -14.869273 -45.004659 12.353999 166.613690 79.291721 161.868290 -0.923687 -15.300449 2.082056 -1.115163 -3.128141 -0.499891
-15.438765 55.137509 26.152911 -176.195239 -33.485740 -11.226275 -0.334841 13.210605 5.751445 -0.275964 7.601895 2.008958 -0.303583 9.503574 2.510859 -0.271883 7.587323 2.004717 5.598428 20.838432 -2.738402 6.720464 -3.283415 -4.268246 1.438714 3.562688 -3.467990 -16.986794 -12.173388 6.088640 -0.701751 -57.935946 13.449874 7.671510 -7.889051 -30.442717 -8.167801 3.474364 -2.991054 3.173064 -1.114012 -2.442454 -71.193166 -71.600085 76.238666 11.152740 -15.699388 6.969587 -17.921376 -32.511943 3.307200 9.205369 87.027327 5.460836 1.132341 -17.121071 1.784908 -0.085664 0.517469 -0.037351 -14.874312 -44.917153 12.314761 166.557892 79.293009 161.820738 -0.929371 -15.300764 2.063173 -1.103618 -3.126049 -0.492665
